<?xml version="1.0" standalone="no"?>
<!DOCTYPE svg PUBLIC "-//W3C//DTD SVG 20010904//EN"
 "http://www.w3.org/TR/2001/REC-SVG-20010904/DTD/svg10.dtd">
<svg version="1.0" xmlns="http://www.w3.org/2000/svg"
 width="360.000000pt" height="360.000000pt" viewBox="0 0 360.000000 360.000000"
 preserveAspectRatio="xMidYMid meet">

<g transform="translate(0.000000,360.000000) scale(0.100000,-0.100000)"
fill="#000000" stroke="none">
<path d="M1050 2311 c0 -5 18 -41 41 -80 l41 -71 200 0 200 0 124 72 c69 39
127 75 130 80 3 4 -162 8 -365 8 -217 0 -371 -4 -371 -9z"/>
<path d="M1767 2200 l-207 -120 -125 0 c-69 0 -125 -4 -125 -9 0 -5 18 -41 41
-80 l41 -71 100 0 100 0 206 120 207 120 232 0 231 0 41 71 c23 39 41 75 41
80 0 5 -121 9 -287 9 l-288 0 -208 -120z"/>
<path d="M1938 2023 l-98 -57 0 -338 c0 -186 2 -338 4 -338 2 0 38 60 80 134
l76 134 0 160 0 160 34 21 c25 16 50 21 104 21 l71 0 34 58 c19 31 40 67 46
80 l12 22 -133 0 -133 0 -97 -57z"/>
<path d="M1683 1876 l-72 -41 -1 -147 0 -146 73 -125 72 -125 3 153 c1 85 1
225 0 313 l-3 159 -72 -41z"/>
</g>
</svg>
